<svg width="96" height="96" xmlns="http://www.w3.org/2000/svg" xmlns:xlink="http://www.w3.org/1999/xlink" xml:space="preserve" overflow="hidden"><g transform="translate(-88 -479)"><path d="M136 489C115 489 98 506 98 527 98 548 115 565 136 565 157 565 174 548 174 527 174 506 157 489 136 489ZM102 527C102 518.1 105.4 510.1 111 504 111.9 504.5 112.8 505.3 113 506L113 512.3C113 512.7 113.1 513.2 113.4 513.5L120 522 120.5 521.5C120.8 521.2 120.9 520.7 120.7 520.3L119.5 518.3C119 517.5 119.8 516.5 120.7 516.8 121 516.9 121.2 517.1 121.3 517.3L124.6 523.8C125 524.5 125.6 525.1 126.3 525.3L130.7 526.8C131 526.9 131.2 527.1 131.3 527.3L131.6 527.8C131.9 528.5 132.6 528.9 133.4 528.9L134.6 528.9C134.9 528.9 135.2 529.1 135.4 529.3L136.7 531.2C137 531.6 137.4 531.9 137.9 532L140 532.5C140.6 532.6 140.9 533.3 140.7 533.8 140.7 533.8 139.1 535.4 139.1 537.7 139.1 544.3 145.1 546.2 145.1 547.7 145.1 551.8 144.5 557.5 144.2 559.7 141.6 560.3 138.9 560.7 136.1 560.7 117.3 561 102 545.7 102 527ZM148.8 558.5C151 556.6 154.7 553.4 156 552 157.7 550.1 158 547 158 547 158 547 165 545.1 165 540 165 536.5 158 535 158 535 156.8 531.1 150.9 529 146 529 144.9 529 141 531 141 531L139 530 139 527C139 526.4 138.6 526 138 526L136 526 136 523C136 522.4 135.6 522 135 522L134 522 132.9 522.7C131.9 523.4 130.5 523 130 521.9 130 521.9 129 520.5 129 519.9 129 515.6 134 515.9 134 515.9L136.2 515.9C136.7 515.9 137.1 516.2 137.2 516.7L137.8 519.2C137.9 519.6 138.3 520 138.8 520L139.2 520C139.7 520 140.1 519.7 140.2 519.2L140.9 515.5C141 515.2 141.1 514.9 141.3 514.6L144.1 511.1C144.7 510.4 145.5 510 146.4 510L149 510C149.6 510 150 509.6 150 509L150 508 149.7 507.7C149.1 507.1 149.5 506 150.4 506L151 506C151.6 506 152 506.4 152 507 152 507.6 152.4 508 153 508L154 508 154.6 505.4C154.8 504.5 154.4 503.7 153.7 503.2L145.2 498.1C145.1 498 144.9 498 144.7 498L143 498C141.9 498 141 498.9 141 500L141 501C141 501.6 140.6 502 140 502L139 502 138 501 135 501C134.4 501 134 500.6 134 500L134 497.5C134 497.2 134.1 496.9 134.4 496.7L140.8 494 141.8 495.7C142 495.9 142.2 496 142.5 496L145 496C145.6 496 146 495.6 146 495L146 494.5C159.9 498.8 170 511.7 170 527 170 541.2 161.2 553.4 148.8 558.5Z" fill="#78206E"/><path d="M148.3 522.8 143.5 521.2C143.1 521.1 142.8 521.1 142.4 521.2L139 522C138.7 522.2 138.6 522.6 139 523L143.6 523C143.9 523 144.1 523 144.3 523.1L147.8 524.5C148.4 524.7 149 524.3 149 523.7 149 523.3 148.7 522.9 148.3 522.8Z" fill="#78206E"/></g></svg>